<svg xmlns="http://www.w3.org/2000/svg" viewBox="0 0 64 64" width="64" height="64">
  <rect width="64" height="64" rx="14" fill="#18181b"/>
  <g transform="translate(14, 12) scale(1.5)" fill="none" stroke="white" stroke-width="1.5" stroke-linecap="round" stroke-linejoin="round">
    <path d="M13 16a3 3 0 0 1 2.24 5"/>
    <path d="M18 12h.01"/>
    <path d="M18 21h-8a4 4 0 0 1-4-4 7 7 0 0 1 7-7h.2L9.6 6.4a1.93 1.93 0 0 1 2.5-2.5L16.6 7.8a3 3 0 0 1 .4.2"/>
    <path d="M20 8.54V4a2 2 0 1 0-4 0v3"/>
    <path d="M7.612 12.524a3 3 0 1 0-1.6 4.3"/>
  </g>
</svg>
